<svg width="1440" height="1024" viewBox="0 0 1440 1024" fill="none" xmlns="http://www.w3.org/2000/svg">
<g clip-path="url(#clip0)">
<rect width="1440" height="1024" fill="white"/>
<rect x="-55" y="-32" width="1685" height="1139" fill="#511818"/>
<mask id="path-2-outside-1" maskUnits="userSpaceOnUse" x="206.088" y="299.416" width="484" height="121" fill="black">
<rect fill="white" x="206.088" y="299.416" width="484" height="121"/>
<path d="M255.152 414L224.192 379.152V414H211.088V307.44H224.192V370.08L254.576 335.088H272.864L235.712 374.4L273.008 414H255.152Z"/>
<path d="M280.301 374.256C280.301 366.192 281.933 359.136 285.197 353.088C288.461 346.944 292.925 342.192 298.589 338.832C304.349 335.472 310.733 333.792 317.741 333.792C324.653 333.792 330.653 335.28 335.741 338.256C340.829 341.232 344.621 344.976 347.117 349.488V335.088H360.365V414H347.117V399.312C344.525 403.92 340.637 407.76 335.453 410.832C330.365 413.808 324.413 415.296 317.597 415.296C310.589 415.296 304.253 413.568 298.589 410.112C292.925 406.656 288.461 401.808 285.197 395.568C281.933 389.328 280.301 382.224 280.301 374.256ZM347.117 374.4C347.117 368.448 345.917 363.264 343.517 358.848C341.117 354.432 337.853 351.072 333.725 348.768C329.693 346.368 325.229 345.168 320.333 345.168C315.437 345.168 310.973 346.32 306.941 348.624C302.909 350.928 299.693 354.288 297.293 358.704C294.893 363.12 293.693 368.304 293.693 374.256C293.693 380.304 294.893 385.584 297.293 390.096C299.693 394.512 302.909 397.92 306.941 400.32C310.973 402.624 315.437 403.776 320.333 403.776C325.229 403.776 329.693 402.624 333.725 400.32C337.853 397.92 341.117 394.512 343.517 390.096C345.917 385.584 347.117 380.352 347.117 374.4Z"/>
<path d="M395.614 347.904C397.918 343.392 401.182 339.888 405.406 337.392C409.726 334.896 414.958 333.648 421.102 333.648V347.184H417.646C402.958 347.184 395.614 355.152 395.614 371.088V414H382.51V335.088H395.614V347.904Z"/>
<path d="M452.213 345.888V392.4C452.213 396.24 453.029 398.976 454.661 400.608C456.293 402.144 459.125 402.912 463.157 402.912H472.805V414H460.997C453.701 414 448.229 412.32 444.581 408.96C440.933 405.6 439.109 400.08 439.109 392.4V345.888H428.885V335.088H439.109V315.216H452.213V335.088H472.805V345.888H452.213Z"/>
<path d="M527.85 333.648C533.802 333.648 539.178 334.944 543.978 337.536C548.778 340.032 552.522 343.824 555.21 348.912C557.994 354 559.386 360.192 559.386 367.488V414H546.426V369.36C546.426 361.488 544.458 355.488 540.522 351.36C536.586 347.136 531.21 345.024 524.394 345.024C517.482 345.024 511.962 347.184 507.834 351.504C503.802 355.824 501.786 362.112 501.786 370.368V414H488.682V307.44H501.786V346.32C504.378 342.288 507.93 339.168 512.442 336.96C517.05 334.752 522.186 333.648 527.85 333.648Z"/>
<path d="M587.559 322.272C585.063 322.272 582.951 321.408 581.223 319.68C579.495 317.952 578.631 315.84 578.631 313.344C578.631 310.848 579.495 308.736 581.223 307.008C582.951 305.28 585.063 304.416 587.559 304.416C589.959 304.416 591.975 305.28 593.607 307.008C595.335 308.736 596.199 310.848 596.199 313.344C596.199 315.84 595.335 317.952 593.607 319.68C591.975 321.408 589.959 322.272 587.559 322.272ZM593.895 335.088V414H580.791V335.088H593.895Z"/>
<path d="M660.293 414L629.333 379.152V414H616.229V307.44H629.333V370.08L659.717 335.088H678.005L640.853 374.4L678.149 414H660.293Z"/>
</mask>
<path d="M255.152 414L224.192 379.152V414H211.088V307.44H224.192V370.08L254.576 335.088H272.864L235.712 374.4L273.008 414H255.152Z" stroke="white" stroke-width="10" mask="url(#path-2-outside-1)"/>
<path d="M280.301 374.256C280.301 366.192 281.933 359.136 285.197 353.088C288.461 346.944 292.925 342.192 298.589 338.832C304.349 335.472 310.733 333.792 317.741 333.792C324.653 333.792 330.653 335.28 335.741 338.256C340.829 341.232 344.621 344.976 347.117 349.488V335.088H360.365V414H347.117V399.312C344.525 403.92 340.637 407.76 335.453 410.832C330.365 413.808 324.413 415.296 317.597 415.296C310.589 415.296 304.253 413.568 298.589 410.112C292.925 406.656 288.461 401.808 285.197 395.568C281.933 389.328 280.301 382.224 280.301 374.256ZM347.117 374.4C347.117 368.448 345.917 363.264 343.517 358.848C341.117 354.432 337.853 351.072 333.725 348.768C329.693 346.368 325.229 345.168 320.333 345.168C315.437 345.168 310.973 346.32 306.941 348.624C302.909 350.928 299.693 354.288 297.293 358.704C294.893 363.12 293.693 368.304 293.693 374.256C293.693 380.304 294.893 385.584 297.293 390.096C299.693 394.512 302.909 397.92 306.941 400.32C310.973 402.624 315.437 403.776 320.333 403.776C325.229 403.776 329.693 402.624 333.725 400.32C337.853 397.92 341.117 394.512 343.517 390.096C345.917 385.584 347.117 380.352 347.117 374.4Z" stroke="white" stroke-width="10" mask="url(#path-2-outside-1)"/>
<path d="M395.614 347.904C397.918 343.392 401.182 339.888 405.406 337.392C409.726 334.896 414.958 333.648 421.102 333.648V347.184H417.646C402.958 347.184 395.614 355.152 395.614 371.088V414H382.51V335.088H395.614V347.904Z" stroke="white" stroke-width="10" mask="url(#path-2-outside-1)"/>
<path d="M452.213 345.888V392.4C452.213 396.24 453.029 398.976 454.661 400.608C456.293 402.144 459.125 402.912 463.157 402.912H472.805V414H460.997C453.701 414 448.229 412.32 444.581 408.96C440.933 405.6 439.109 400.08 439.109 392.4V345.888H428.885V335.088H439.109V315.216H452.213V335.088H472.805V345.888H452.213Z" stroke="white" stroke-width="10" mask="url(#path-2-outside-1)"/>
<path d="M527.85 333.648C533.802 333.648 539.178 334.944 543.978 337.536C548.778 340.032 552.522 343.824 555.21 348.912C557.994 354 559.386 360.192 559.386 367.488V414H546.426V369.36C546.426 361.488 544.458 355.488 540.522 351.36C536.586 347.136 531.21 345.024 524.394 345.024C517.482 345.024 511.962 347.184 507.834 351.504C503.802 355.824 501.786 362.112 501.786 370.368V414H488.682V307.44H501.786V346.32C504.378 342.288 507.93 339.168 512.442 336.96C517.05 334.752 522.186 333.648 527.85 333.648Z" stroke="white" stroke-width="10" mask="url(#path-2-outside-1)"/>
<path d="M587.559 322.272C585.063 322.272 582.951 321.408 581.223 319.68C579.495 317.952 578.631 315.84 578.631 313.344C578.631 310.848 579.495 308.736 581.223 307.008C582.951 305.28 585.063 304.416 587.559 304.416C589.959 304.416 591.975 305.28 593.607 307.008C595.335 308.736 596.199 310.848 596.199 313.344C596.199 315.84 595.335 317.952 593.607 319.68C591.975 321.408 589.959 322.272 587.559 322.272ZM593.895 335.088V414H580.791V335.088H593.895Z" stroke="white" stroke-width="10" mask="url(#path-2-outside-1)"/>
<path d="M660.293 414L629.333 379.152V414H616.229V307.44H629.333V370.08L659.717 335.088H678.005L640.853 374.4L678.149 414H660.293Z" stroke="white" stroke-width="10" mask="url(#path-2-outside-1)"/>
</g>
<defs>
<clipPath id="clip0">
<rect width="1440" height="1024" fill="white"/>
</clipPath>
</defs>
</svg>
